<mxfile host="app.diagrams.net" modified="2022-02-16T04:15:14.550Z" agent="5.0 (Windows NT 10.0; WOW64) AppleWebKit/537.36 (KHTML, like Gecko) Chrome/98.0.4758.82 Safari/537.36" etag="zMsgWzLKzw9w3106dW7u" version="16.5.6" type="github">
  <diagram id="ckAerFM2I3_QofpGEC0q" name="Page-1">
    <mxGraphModel dx="920" dy="473" grid="1" gridSize="10" guides="1" tooltips="1" connect="1" arrows="1" fold="1" page="1" pageScale="1" pageWidth="827" pageHeight="1169" math="0" shadow="0">
      <root>
        <mxCell id="0" />
        <mxCell id="1" parent="0" />
        <mxCell id="cMRPgFcUpvOum6trfaYl-1" value="TypeScript" style="rounded=0;whiteSpace=wrap;html=1;fillColor=#dae8fc;strokeColor=#6c8ebf;fontStyle=1" parent="1" vertex="1">
          <mxGeometry x="359" y="120" width="110" height="50" as="geometry" />
        </mxCell>
        <mxCell id="cMRPgFcUpvOum6trfaYl-2" value="&lt;b&gt;типы аннотаци&lt;/b&gt;и(объявления переменных) - явные и неявные&lt;br&gt;let x:number;&lt;br&gt;let y = 5;&lt;br&gt;let z; //определен тип как any" style="rounded=0;whiteSpace=wrap;fontSize=12;html=1;align=left;" parent="1" vertex="1">
          <mxGeometry x="290" y="668" width="260" height="90" as="geometry" />
        </mxCell>
        <mxCell id="cMRPgFcUpvOum6trfaYl-5" value="&lt;b&gt;Примитивные типы -&lt;/b&gt; boolean, number, string, &lt;b&gt;void &lt;/b&gt;(func без возвращаемого значения), null, undefined , &lt;b&gt;enum&lt;/b&gt;" style="rounded=0;whiteSpace=wrap;fontSize=12;labelBackgroundColor=none;labelBorderColor=none;html=1;labelPosition=center;verticalLabelPosition=middle;align=left;verticalAlign=middle;" parent="1" vertex="1">
          <mxGeometry y="600" width="260" height="60" as="geometry" />
        </mxCell>
        <mxCell id="cMRPgFcUpvOum6trfaYl-8" value="&lt;b&gt;Не примитивные типы -&lt;/b&gt;&amp;nbsp;объект, функции, класс, интерфейс, массив, литералы, never" style="rounded=0;whiteSpace=wrap;fontSize=12;labelBackgroundColor=none;labelBorderColor=none;html=1;labelPosition=center;verticalLabelPosition=middle;align=left;verticalAlign=middle;" parent="1" vertex="1">
          <mxGeometry x="290" y="600" width="260" height="60" as="geometry" />
        </mxCell>
        <mxCell id="cMRPgFcUpvOum6trfaYl-9" value="&lt;span&gt;&lt;b&gt;Пользовательские типы&lt;/b&gt;&lt;br&gt;type UserName = string;&lt;br&gt;&lt;/span&gt;" style="rounded=0;whiteSpace=wrap;fontSize=12;labelBackgroundColor=none;labelBorderColor=none;html=1;labelPosition=center;verticalLabelPosition=middle;align=left;verticalAlign=middle;fontStyle=0" parent="1" vertex="1">
          <mxGeometry y="668" width="260" height="40" as="geometry" />
        </mxCell>
        <mxCell id="cMRPgFcUpvOum6trfaYl-10" value="&lt;span&gt;&lt;b&gt;Multiple type for one value:&lt;/b&gt;&lt;br&gt;type id: number | string;&lt;br&gt;&lt;/span&gt;" style="rounded=0;whiteSpace=wrap;fontSize=12;labelBackgroundColor=none;labelBorderColor=none;html=1;labelPosition=center;verticalLabelPosition=middle;align=left;verticalAlign=middle;fontStyle=0" parent="1" vertex="1">
          <mxGeometry y="715" width="260" height="40" as="geometry" />
        </mxCell>
        <mxCell id="cMRPgFcUpvOum6trfaYl-11" value="&lt;span&gt;&lt;b&gt;Never type:&amp;nbsp;&lt;/b&gt;&lt;br&gt;-при бесконечном цикле function&lt;br&gt;-когда function return error и не заканчивает выполнение&lt;br&gt;&lt;/span&gt;" style="rounded=0;whiteSpace=wrap;fontSize=12;labelBackgroundColor=none;labelBorderColor=none;html=1;labelPosition=center;verticalLabelPosition=middle;align=left;verticalAlign=middle;fontStyle=0" parent="1" vertex="1">
          <mxGeometry y="768" width="260" height="60" as="geometry" />
        </mxCell>
        <mxCell id="cMRPgFcUpvOum6trfaYl-12" value="Function" style="rounded=0;whiteSpace=wrap;html=1;fillColor=#f5f5f5;strokeColor=#666666;fontColor=#333333;fontStyle=1" parent="1" vertex="1">
          <mxGeometry y="180" width="230" height="30" as="geometry" />
        </mxCell>
        <mxCell id="cMRPgFcUpvOum6trfaYl-13" value="Object" style="rounded=0;whiteSpace=wrap;html=1;fillColor=#f5f5f5;strokeColor=#666666;fontColor=#333333;fontStyle=1" parent="1" vertex="1">
          <mxGeometry x="590" y="170" width="230" height="30" as="geometry" />
        </mxCell>
        <mxCell id="cMRPgFcUpvOum6trfaYl-14" value="Class" style="rounded=0;whiteSpace=wrap;html=1;fillColor=#f5f5f5;strokeColor=#666666;fontColor=#333333;fontStyle=1" parent="1" vertex="1">
          <mxGeometry x="580" y="80" width="230" height="30" as="geometry" />
        </mxCell>
        <mxCell id="Wgzo_U2azRaQrl_Qb15R-1" value="Базовые типы" style="rounded=0;whiteSpace=wrap;html=1;fillColor=#f5f5f5;strokeColor=#666666;fontColor=#333333;fontStyle=1" vertex="1" parent="1">
          <mxGeometry y="70" width="230" height="30" as="geometry" />
        </mxCell>
        <mxCell id="Wgzo_U2azRaQrl_Qb15R-2" value="Базовые типы" style="rounded=0;whiteSpace=wrap;html=1;fillColor=#f5f5f5;strokeColor=#666666;fontColor=#333333;fontStyle=1" vertex="1" parent="1">
          <mxGeometry y="520" width="230" height="30" as="geometry" />
        </mxCell>
      </root>
    </mxGraphModel>
  </diagram>
</mxfile>
